<?xml version="1.0" encoding="UTF-8"?>
<svg id="Camada_1" data-name="Camada 1" xmlns="http://www.w3.org/2000/svg" viewBox="0 0 1920 1080">
  <defs>
    <style>
      .cls-1 {
        fill: none;
        stroke: #fff;
        stroke-miterlimit: 10;
        stroke-width: 5px;
      }

      .cls-2 {
        fill: #2a3942;
      }

      .cls-2, .cls-3 {
        stroke-width: 0px;
      }

      .cls-3 {
        fill: #fff;
      }
    </style>
  </defs>
  <circle class="cls-2" cx="959.61" cy="518.5" r="497.5"/>
  <path class="cls-3" d="M1075.35,739.22c0,17.33-12.34,20.5-19.16,20.95h-84.21c-17.62,0-20.29-13.54-20.61-19.76v-240.2c23.38-15.93,39.34-38.03,43.1-62.99,1.73-10.28-8.31-11.37-11.55-11.41h-31.04c2.6-31.86,28.96-56.97,61.49-56.97,34.24,0,62,27.75,62,62v308.37h0ZM863.64,507.77c-40.61,0-74.03-23.19-78.64-53.05-1.13-7.15,7.36-7.05,7.36-7.05h142.89c1.78.04,7.2.65,7.24,6.07-4.01,30.33-37.81,54.04-78.85,54.04h0ZM1053.93,344.65c-.24-.18-.43-.36-.77-.55-10.06-5.77-9.69-16.4-9.69-16.4v-81.9c0-10.03,6.31-9.76,6.31-9.76l-.08-.18c5.65-.7,7.44-4.65,7.84-7.78v-36.05c0-12.2-9.18-14.17-13.51-14.42h-62.03c-11.79,0-13.25,9.69-13.39,13.6v31.75c0,10.24,5.85,12.53,8.94,13.03h0s.02,0,.02,0c.49.08.89.14,1.21.15,1.73.41,4.81,2.18,4.81,9.66v85.35c-.4,3.53-2.14,8.87-8.48,12.39-.38.2-.5.4-.81.6-29.9,14.54-50.58,45.03-50.58,80.49v1.2h-179.59c-9.59,0-11.51,4.68-11.7,7.99,5.02,47.89,54.44,86.24,117.07,91.32v210.65c-.03,2.54-.58,11.21-6.48,17.18l-31.66,31.81c-2.45,2.7-6.03,7.69,1.65,7.69h101.13c7.49,0,4.11-4.77,1.69-7.42l-1.65-1.68-.03-.04-29.14-29.49h0c-6.32-6.39-7.44-13.76-7.6-17.08v-211.6c16.56-1.31,32.14-5.01,46.33-10.53v263.54c.08,3.57,1.56,16.24,19.16,16.24h136.75c20.46,0,23.4-13.22,23.72-19.1v-350.69c-.02-35.02-20.18-65.21-49.44-79.97h0Z"/>
  <circle class="cls-1" cx="961.46" cy="523.24" r="438.1" transform="translate(-88.38 833.11) rotate(-45)"/>
</svg>