<?xml version="1.0" encoding="UTF-8"?>
<svg id="Camada_1" data-name="Camada 1" xmlns="http://www.w3.org/2000/svg" viewBox="0 0 1920 1080">
  <defs>
    <style>
      .cls-1 {
        fill: none;
        stroke: #fff;
        stroke-miterlimit: 10;
        stroke-width: 5px;
      }

      .cls-2 {
        fill: #858386;
      }

      .cls-2, .cls-3 {
        stroke-width: 0px;
      }

      .cls-4 {
        font-family: Arial-BoldMT, Arial;
        font-size: 69.42px;
        font-weight: 700;
      }

      .cls-4, .cls-3 {
        fill: #fff;
      }
    </style>
  </defs>
  <circle class="cls-2" cx="979.82" cy="540" r="529"/>
  <circle class="cls-1" cx="981.8" cy="545.04" r="465.84"/>
  <g>
    <path class="cls-3" d="M1056.55,511.92c0,44.52-36.09,80.62-80.62,80.62s-80.62-36.09-80.62-80.62,36.09-80.62,80.62-80.62,80.62,36.09,80.62,80.62"/>
    <path class="cls-3" d="M782.46,366.81c-35.62,0-64.49,28.87-64.49,64.49v193.48c0,35.62,28.87,64.49,64.49,64.49h386.96c35.62,0,64.49-28.87,64.49-64.49v-193.48c0-35.62-28.87-64.49-64.49-64.49h-37.79c-17.1,0-33.5-6.8-45.6-18.9l-26.7-26.7c-12.09-12.1-28.49-18.89-45.6-18.9h-75.59c-17.1,0-33.5,6.8-45.6,18.9l-26.7,26.7c-12.09,12.1-28.49,18.89-45.6,18.9h-37.79ZM798.58,431.3c-8.9,0-16.12-7.22-16.12-16.12s7.22-16.12,16.12-16.12,16.12,7.22,16.12,16.12-7.22,16.12-16.12,16.12M1088.8,511.92c0,62.33-50.53,112.86-112.86,112.86s-112.86-50.53-112.86-112.86,50.53-112.86,112.86-112.86,112.86,50.53,112.86,112.86"/>
  </g>
  <text class="cls-4" transform="translate(684.49 800.77)"><tspan x="0" y="0">Adicionar Imagem</tspan></text>
</svg>