<?xml version="1.0" encoding="UTF-8"?>
<svg id="Camada_1" data-name="Camada 1" xmlns="http://www.w3.org/2000/svg" viewBox="0 0 1920 1080">
  <defs>
    <style>
      .cls-1 {
        fill: none;
        stroke: #fff;
        stroke-miterlimit: 10;
        stroke-width: 5px;
      }

      .cls-2 {
        fill: #2a3942;
      }

      .cls-2, .cls-3 {
        stroke-width: 0px;
      }

      .cls-3 {
        fill: #fff;
      }
    </style>
  </defs>
  <circle class="cls-2" cx="1015.43" cy="540" r="531"/>
  <circle class="cls-1" cx="1017.41" cy="545.06" r="467.6"/>
  <g id="Layer_2" data-name="Layer 2">
    <g id="Layer_1-2" data-name="Layer 1-2">
      <path id="groceries" class="cls-3" d="M1249.24,476.82c-.57-.45-55.36-43.78-59.62-104.08,5.69.26,13.99.6,14.07-7.28v-58.11c0-4.01-3.25-7.26-7.26-7.26h-96.78c-3.98.05-7.18,3.28-7.18,7.26v58.04c.15,7.86,8.28,7.56,14.03,7.28-2.9,27.71-13.92,53.95-31.68,75.42-2.61,3.04-2.27,7.63.78,10.24,3.04,2.61,7.63,2.27,10.24-.78.13-.15.26-.31.38-.48,19.89-23.98,32.09-53.39,35.01-84.4h53.74c5.57,44.4,28,84.95,62.64,113.28v36.67h-89.43c-4.01,0-7.26,3.25-7.26,7.26v135.46c0,4.01,3.25,7.26,7.26,7.26h89.43v53.23h-150.05v-162.1c-.02-17.36-14.09-31.43-31.45-31.45-13.54-.23-18.31-12.29-16.93-24.17,5.98-.4,19.46,2.53,19.36-7.26v-48.38c0-4.01-3.25-7.26-7.26-7.26h-135.53c-4.01,0-7.26,3.25-7.26,7.26h0v48.38c0,9.77,13.24,6.88,19.36,7.26,1.38,11.92-3.39,23.89-16.93,24.17-17.33.07-31.34,14.12-31.36,31.45v162.08h-91.96v-165.66l66.94,33.2c3.7,1.54,7.95-.21,9.49-3.92,1.41-3.38.08-7.28-3.1-9.09l-73.33-36.39v-76.16l95.97,47.59c3.7,1.54,7.95-.21,9.49-3.92,1.41-3.38.08-7.28-3.1-9.09l-102.35-50.76v-88.62h140.32v60.45c0,4.01,3.25,7.26,7.26,7.26s7.26-3.25,7.26-7.26v-60.45h62.88v60.45c0,4.01,3.25,7.26,7.26,7.26s7.26-3.25,7.26-7.26v-67.71c0-4.01-3.25-7.26-7.26-7.26h-232.22c-4.01,0-7.26,3.25-7.26,7.26h0v377.35c0,4.01,3.25,7.26,7.26,7.26h99.2v31.45c0,4.01,3.25,7.26,7.26,7.26h193.51c4.01,0,7.26-3.25,7.26-7.26v-31.45h157.25c4-.01,7.24-3.26,7.24-7.26v-250.57c-.02-2.23-1.07-4.33-2.83-5.69ZM1189.17,358.22h-82.25v-43.61h82.25v43.61ZM923.07,493.59v-33.81h120.94v33.81h-120.94ZM1073.04,672.71h-120.94v-63.01h120.94v63.01ZM1073.04,595.31h-128.2c-4,.01-7.24,3.26-7.24,7.26v77.4c0,4,3.24,7.25,7.24,7.26h128.2v77.4h-178.99v-200.79c.06-9.37,7.67-16.93,17.03-16.93,18.14-.53,32.41-15.67,31.87-33.81-.05-1.67-.23-3.34-.53-4.99h82.23c-3.23,17.86,8.63,34.95,26.48,38.18,1.64.3,3.3.47,4.97.51,9.41,0,17.03,7.63,17.03,17.03h0l-.11,31.47ZM1237.55,658.19h-82.23v-120.94h82.23v120.94Z"/>
    </g>
  </g>
</svg>