<?xml version="1.0" encoding="UTF-8"?>
<svg id="Camada_1" data-name="Camada 1" xmlns="http://www.w3.org/2000/svg" viewBox="0 0 1920 1080">
  <defs>
    <style>
      .cls-1 {
        fill: #474747;
        stroke-width: 0px;
      }
    </style>
  </defs>
  <path class="cls-1" d="M537.98,77c-18.23,0-33,14.77-33,33v198c0,18.23-14.78,33-33,33s-33-14.77-33-33V110c0-54.68,44.33-99,99.01-99h198.03c18.23,0,33,14.77,33,33s-14.78,33-33,33h-198.03ZM1165.06,44c0-18.23,14.78-33,33-33h198.03c54.68,0,99.01,44.32,99.01,99v198c0,18.23-14.78,33-33,33s-33-14.77-33-33V110c0-18.23-14.78-33-33-33h-198.03c-18.23,0-33-14.77-33-33M471.97,737c18.23,0,33,14.77,33,33v198c0,18.23,14.78,33,33,33h198.03c18.23,0,33,14.77,33,33s-14.78,33-33,33h-198.03c-54.68,0-99.01-44.32-99.01-99h0v-198c0-18.23,14.78-33,33-33M1462.1,737c18.23,0,33,14.77,33,33v198c0,54.68-44.33,99-99.01,99h-198.03c-18.23,0-33-14.77-33-33s14.78-33,33-33h198.03c18.23,0,33-14.77,33-33v-198c0-18.23,14.78-33,33-33M636.99,308c0-18.23,14.78-33,33-33s33,14.77,33,33v462c0,18.23-14.78,33-33,33s-33-14.77-33-33v-462ZM769.01,308c0-18.23,14.78-33,33-33s33,14.77,33,33v462c0,18.23-14.78,33-33,33s-33-14.77-33-33v-462ZM901.03,308c0-18.23,14.78-33,33-33s33,14.77,33,33v462c0,18.23-14.78,33-33,33s-33-14.77-33-33v-462ZM1033.04,308c0-18.23,14.78-33,33-33h66.01c18.23,0,33,14.77,33,33v462c0,18.23-14.78,33-33,33h-66.01c-18.23,0-33-14.77-33-33v-462ZM1231.07,308c0-18.23,14.78-33,33-33s33,14.77,33,33v462c0,18.23-14.78,33-33,33s-33-14.77-33-33v-462Z"/>
</svg>