<?xml version="1.0" encoding="UTF-8"?>
<svg id="Camada_1" data-name="Camada 1" xmlns="http://www.w3.org/2000/svg" viewBox="0 0 1920 1080">
  <defs>
    <style>
      .cls-1 {
        fill: none;
        stroke: #fff;
        stroke-miterlimit: 10;
        stroke-width: 5px;
      }

      .cls-2 {
        fill: #2a3942;
      }

      .cls-2, .cls-3 {
        stroke-width: 0px;
      }

      .cls-3 {
        fill: #fff;
      }
    </style>
  </defs>
  <circle class="cls-2" cx="960.12" cy="540.12" r="533.12"/>
  <circle class="cls-1" cx="962.11" cy="545.21" r="469.47"/>
  <g id="canned_food" data-name="canned food">
    <g>
      <path class="cls-3" d="M1114.76,409.25h-11.97l10.08-4.41c2.52-1.26,4.41-3.78,3.78-6.93l-2.52-19.54,12.6-15.76c1.89-2.52,1.89-5.67,0-7.56l-12.6-15.76,2.52-19.54c.63-2.52-1.26-5.67-3.78-6.93l-18.28-8.19-5.67-18.91c-.63-2.52-2.52-4.41-5.67-4.41l-18.91-1.26-10.71-16.39c-1.26-1.89-3.78-3.15-6.3-2.52l-18.91,3.78-14.49-13.86c-1.89-1.89-4.41-2.52-6.93-1.26l-17.65,7.56-16.39-10.71c-1.89-1.26-5.04-1.26-6.93,0l-16.39,10.71-17.65-7.56c-2.52-1.26-5.04-.63-6.93,1.26l-13.23,13.23-18.91-3.78c-2.52-.63-5.04.63-6.3,2.52l-11.34,17.02-18.91,1.26c-2.52,0-5.04,1.89-5.67,4.41l-5.67,18.91-18.28,8.19c-2.52,1.26-4.41,3.78-3.78,6.93l2.52,19.54-12.6,15.76c-1.89,2.52-1.89,5.67,0,7.56l12.6,15.76-2.52,19.54c-.63,2.52,1.26,5.67,3.78,6.93l10.71,4.41h-12.6c-10.71,0-18.91,8.19-18.91,18.91v378.13c0,10.71,8.19,18.91,18.91,18.91h289.9c10.71,0,18.91-8.19,18.91-18.91v-378.13c0-10.71-8.19-18.91-18.91-18.91ZM818.56,453.36h302.5v327.71h-302.5v-327.71ZM856.37,406.1c-.63-1.89-1.89-3.15-3.78-3.78l-16.39-6.93,2.52-17.65c0-1.89,0-3.15-1.26-5.04l-10.71-13.86,10.71-13.86c1.26-1.26,1.26-3.15,1.26-5.04l-2.52-17.65,16.39-6.93c1.89-.63,3.15-2.52,3.78-3.78l5.04-17.65,18.28-1.26c1.89,0,3.78-1.26,5.04-3.15l9.45-15.13,18.28,3.78c1.89.63,4.41,0,5.67-1.89l13.23-13.23,17.02,6.93c1.89.63,4.41.63,5.67-.63l15.76-10.08,15.76,10.08c1.26,1.26,3.78,1.26,5.67.63l17.02-6.93,13.23,13.23c1.26,1.26,3.78,1.89,5.67,1.89l18.28-3.78,10.08,15.76c1.26,1.89,3.15,2.52,5.04,3.15l18.28,1.26,5.04,17.65c.63,1.89,1.89,3.15,3.78,3.78l16.39,6.93-3.15,17.02c0,1.89,0,3.15,1.26,5.04l10.71,13.86-10.71,13.86c-1.26,1.26-1.26,3.15-1.26,5.04l2.52,17.65-16.39,6.93c-1.89.63-3.15,2.52-3.78,3.78l-.63,3.15h-225.62l-.63-3.15ZM824.86,421.85h289.9c3.78,0,6.3,2.52,6.3,6.3v12.6h-302.5v-12.6c0-3.78,2.52-6.3,6.3-6.3ZM1114.76,812.58h-289.9c-3.78,0-6.3-2.52-6.3-6.3v-12.6h302.5v12.6c0,3.78-2.52,6.3-6.3,6.3Z"/>
      <path class="cls-3" d="M969.81,510.08c-59.24,0-107.14,47.9-107.14,107.14s47.9,107.14,107.14,107.14,107.14-47.9,107.14-107.14-47.9-107.14-107.14-107.14ZM969.81,711.75c-52.31,0-94.53-42.22-94.53-94.53s42.22-94.53,94.53-94.53,94.53,42.22,94.53,94.53-42.22,94.53-94.53,94.53Z"/>
    </g>
  </g>
</svg>