<?xml version="1.0" encoding="UTF-8"?>
<svg id="Camada_1" data-name="Camada 1" xmlns="http://www.w3.org/2000/svg" viewBox="0 0 1920 1080">
  <defs>
    <style>
      .cls-1 {
        font-family: Arial-BoldMT, Arial;
        font-size: 152.02px;
        font-weight: 700;
      }

      .cls-1, .cls-2 {
        fill: #fff;
      }

      .cls-3 {
        fill: none;
        stroke: #fff;
        stroke-miterlimit: 10;
        stroke-width: 5px;
      }

      .cls-4 {
        fill: #2a3942;
      }

      .cls-4, .cls-2 {
        stroke-width: 0px;
      }
    </style>
  </defs>
  <circle class="cls-4" cx="960.24" cy="539.5" r="525.5"/>
  <circle class="cls-3" cx="962.2" cy="544.51" r="462.75"/>
  <path class="cls-2" d="M815.05,285.16c-6.37,0-11.54,5.17-11.54,11.54v69.23c0,6.37-5.17,11.54-11.54,11.54s-11.54-5.17-11.54-11.54v-69.23c0-19.12,15.5-34.62,34.62-34.62h69.23c6.37,0,11.54,5.17,11.54,11.54s-5.17,11.54-11.54,11.54h-69.23ZM1034.29,273.62c0-6.37,5.17-11.54,11.54-11.54h69.23c19.12,0,34.62,15.5,34.62,34.62v69.23c0,6.37-5.17,11.54-11.54,11.54s-11.54-5.17-11.54-11.54v-69.23c0-6.37-5.17-11.54-11.54-11.54h-69.23c-6.37,0-11.54-5.17-11.54-11.54M791.97,515.94c6.37,0,11.54,5.17,11.54,11.54v69.23c0,6.37,5.17,11.54,11.54,11.54h69.23c6.37,0,11.54,5.17,11.54,11.54s-5.17,11.54-11.54,11.54h-69.23c-19.12,0-34.62-15.5-34.62-34.62h0v-69.23c0-6.37,5.17-11.54,11.54-11.54M1138.14,515.94c6.37,0,11.54,5.17,11.54,11.54v69.23c0,19.12-15.5,34.62-34.62,34.62h-69.23c-6.37,0-11.54-5.17-11.54-11.54s5.17-11.54,11.54-11.54h69.23c6.37,0,11.54-5.17,11.54-11.54v-69.23c0-6.37,5.17-11.54,11.54-11.54M849.67,365.93c0-6.37,5.17-11.54,11.54-11.54s11.54,5.17,11.54,11.54v161.55c0,6.37-5.17,11.54-11.54,11.54s-11.54-5.17-11.54-11.54v-161.55ZM895.82,365.93c0-6.37,5.17-11.54,11.54-11.54s11.54,5.17,11.54,11.54v161.55c0,6.37-5.17,11.54-11.54,11.54s-11.54-5.17-11.54-11.54v-161.55ZM941.98,365.93c0-6.37,5.17-11.54,11.54-11.54s11.54,5.17,11.54,11.54v161.55c0,6.37-5.17,11.54-11.54,11.54s-11.54-5.17-11.54-11.54v-161.55ZM988.13,365.93c0-6.37,5.17-11.54,11.54-11.54h23.08c6.37,0,11.54,5.17,11.54,11.54v161.55c0,6.37-5.17,11.54-11.54,11.54h-23.08c-6.37,0-11.54-5.17-11.54-11.54v-161.55ZM1057.37,365.93c0-6.37,5.17-11.54,11.54-11.54s11.54,5.17,11.54,11.54v161.55c0,6.37-5.17,11.54-11.54,11.54s-11.54-5.17-11.54-11.54v-161.55Z"/>
  <text class="cls-1" transform="translate(805.1 818.83)"><tspan x="0" y="0">ADD</tspan></text>
</svg>