<?xml version="1.0" encoding="UTF-8"?>
<svg id="Camada_1" data-name="Camada 1" xmlns="http://www.w3.org/2000/svg" viewBox="0 0 1920 1080">
  <defs>
    <style>
      .cls-1 {
        fill: none;
        stroke: #fff;
        stroke-miterlimit: 10;
        stroke-width: 5px;
      }

      .cls-2 {
        fill: #2a3942;
      }

      .cls-2, .cls-3 {
        stroke-width: 0px;
      }

      .cls-3 {
        fill: #fff;
        fill-rule: evenodd;
      }
    </style>
  </defs>
  <circle class="cls-2" cx="949.24" cy="540" r="533"/>
  <circle class="cls-1" cx="951.23" cy="545.08" r="469.36"/>
  <path class="cls-3" d="M1242.76,334.35c10.3,4.11,17.05,14.07,17.06,25.16v313.1c0,11.09-6.77,21.05-17.06,25.16l-262.06,104.83c-6.46,2.58-13.67,2.58-20.13,0l-262.06-104.83c-10.28-4.12-17.02-14.08-17.03-25.16v-313.1c0-11.08,6.74-21.04,17.03-25.16l252.01-100.81.14-.04,9.9-3.98c6.47-2.59,13.7-2.59,20.17,0l9.9,3.98.14.04,251.98,100.81ZM1193.09,353.39l-222.45,88.99-222.45-88.99-30.58,12.25v14.46l234.95,93.98v286.35l18.07,7.23,18.07-7.23v-286.32l234.95-93.98v-14.46l-30.58-12.25v-.04Z"/>
</svg>