<?xml version="1.0" encoding="UTF-8"?>
<svg id="Camada_1" data-name="Camada 1" xmlns="http://www.w3.org/2000/svg" viewBox="0 0 1920 1080">
  <defs>
    <style>
      .cls-1 {
        fill: none;
        stroke: #fff;
        stroke-miterlimit: 10;
        stroke-width: 5px;
      }

      .cls-2 {
        fill: #2a3942;
      }

      .cls-2, .cls-3 {
        stroke-width: 0px;
      }

      .cls-3 {
        fill: #fff;
      }
    </style>
  </defs>
  <circle class="cls-2" cx="939.75" cy="539.5" r="525.5"/>
  <circle class="cls-1" cx="941.71" cy="544.51" r="462.75"/>
  <g id="vegetable">
    <g>
      <path class="cls-3" d="M1203.7,533.84h-29.94c10.64-39.91,19.29-75.84,21.29-88.48,5.99-35.92-11.97-70.52-41.25-87.81,7.32-2,14.64-5.32,21.95-9.98,22.62-16.63,27.94-46.57,27.94-47.9,0-2,0-3.33-1.33-5.32-1.33-1.33-2.66-2.66-4.66-2.66-1.33,0-21.95-2.66-41.25,5.99-1.33-21.95-13.3-39.25-13.97-39.91-1.33-1.33-2.66-2.66-4.66-2.66s-3.33,0-5.32,1.33c-.67.67-17.3,13.3-25.28,33.93-15.97-13.97-36.59-17.96-37.92-18.63-2,0-3.33,0-5.32,1.33-2,1.33-2.66,2.66-2.66,4.66,0,1.33-3.99,31.27,11.97,53.89,5.32,7.32,11.31,12.64,17.3,16.63-11.31,2.66-21.95,7.32-31.27,13.97-11.97,8.65-21.29,19.96-27.28,33.26-7.98-24.61-26.61-44.57-50.56-53.89,6.65-3.33,13.97-7.32,19.96-13.3,19.96-19.96,20.62-50.56,20.62-51.89,0-2-.67-3.33-2-4.66-1.33-1.33-3.33-2-4.66-2s-21.95.67-40.58,11.97c-4.66-21.29-19.29-36.59-19.96-37.25-2.66-2.66-7.32-2.66-9.31,0-.67.67-15.3,15.97-19.96,37.25-18.63-11.31-39.91-11.97-40.58-11.97-2,0-3.33.67-4.66,2-1.33,1.33-2,3.33-2,4.66s.67,31.93,20.62,51.89c5.99,5.99,13.3,10.64,19.96,13.3-23.95,9.31-42.58,29.27-50.56,53.89-5.99-13.3-15.3-24.61-27.28-33.26-9.31-6.65-19.96-11.97-31.27-13.97,5.99-3.99,12.64-9.31,17.3-16.63,15.97-22.62,12.64-52.55,11.97-53.89,0-2-1.33-3.33-2.66-4.66s-3.33-1.33-5.32-1.33c-1.33,0-21.29,3.99-37.92,18.63-7.98-19.96-24.61-33.26-25.28-33.93-.67-2-2.66-2-4.66-2s-3.33,1.33-4.66,2.66c-.67.67-12.64,18.63-13.97,39.91-19.96-8.65-40.58-5.99-41.25-5.99-2,0-3.33,1.33-4.66,2.66-.67,2-.67,3.99-.67,5.99,0,1.33,5.99,31.27,27.94,47.9,6.65,5.32,14.64,7.98,21.95,9.98-29.27,17.3-46.57,51.89-41.25,87.81,2,12.64,10.64,48.56,21.29,88.48h-29.94c-3.99,0-6.65,2.66-6.65,6.65v39.91c0,3.99,2.66,6.65,6.65,6.65h7.32l25.94,201.57c4.66,36.59,35.92,64.53,73.18,64.53h294.04c36.59,0,68.52-27.94,73.18-64.53l24.61-201.57h7.32c3.99,0,6.65-2.66,6.65-6.65v-39.91c0-3.99-2.66-6.65-6.65-6.65ZM1167.78,336.27c-9.31,6.65-19.96,9.31-28.61,9.98,6.65-7.98,13.97-19.29,16.63-33.26,11.31-6.65,24.61-7.98,32.6-7.98-2.66,7.98-8.65,22.62-20.62,31.27ZM1135.18,271.74c3.99,7.98,9.31,22.62,7.32,37.25-2,14.64-11.97,26.61-18.63,33.26-3.99-7.98-9.31-22.62-7.32-37.25,2.66-14.64,12.64-26.61,18.63-33.26ZM1085.29,322.96c-8.65-11.97-9.98-27.94-9.98-36.59,7.98,2.66,19.96,7.98,28.61,17.96-2,13.97,2,27.28,5.99,37.25-8.65-3.33-17.96-9.31-24.61-18.63ZM1068.66,372.19c15.3-11.31,34.59-15.97,53.22-12.64,39.25,6.65,65.86,43.91,59.87,83.82-2,10.64-9.98,45.24-21.95,90.47h-12.64c.67-.67.67-1.33.67-2,.67-3.33-2-7.32-5.32-7.32l-38.58-5.99c-3.33-.67-7.32,2-7.32,5.32s2,7.32,5.32,7.32l17.96,2.66h-89.14c2.66-53.89,5.99-99.79,7.98-113.76,3.33-19.29,13.97-36.59,29.94-47.9ZM993.48,317.64c-7.98,7.98-18.63,12.64-27.28,14.64,5.32-8.65,11.31-21.29,11.31-35.92,10.64-8.65,23.28-11.97,31.93-13.3-1.33,8.65-5.32,23.95-15.97,34.59ZM950.91,258.43c5.32,7.32,13.3,20.62,13.3,35.92s-7.98,28.61-13.3,35.92c-5.32-7.32-13.3-20.62-13.3-35.92s7.98-28.61,13.3-35.92ZM892.37,282.38c7.98,1.33,21.29,4.66,31.93,13.3.67,14.64,5.99,27.28,11.31,35.92-8.65-2-19.29-6.65-27.28-14.64-10.64-9.98-14.64-25.28-15.97-34.59ZM950.91,347.57h0c40.58,0,73.18,32.6,73.18,73.18,0,13.97-3.33,59.21-9.31,113.09h-127.73c-5.99-53.89-9.31-99.12-9.31-113.09,0-40.58,32.6-73.18,73.18-73.18ZM826.51,286.37c0,9.31-1.33,24.61-9.98,36.59-6.65,9.31-15.97,14.64-23.95,18.63,3.99-9.98,7.32-23.28,5.99-37.25,7.98-9.98,20.62-15.3,27.94-17.96ZM766.63,271.74c6.65,6.65,15.97,18.63,18.63,33.26,2,14.64-3.33,29.27-7.32,37.25-6.65-6.65-15.97-18.63-18.63-33.26-2.66-14.64,2.66-29.27,7.32-37.25ZM713.42,304.33c7.98,0,21.29,1.33,32.6,7.98,2.66,13.97,9.98,25.94,16.63,33.93-8.65-.67-19.96-3.33-28.61-9.98-11.97-8.65-17.96-23.28-20.62-31.93ZM720.07,443.37c-5.99-39.91,20.62-77.17,59.87-83.82,18.63-3.33,37.92,1.33,53.22,12.64,15.97,11.31,25.94,28.61,29.27,47.9,2,13.97,5.99,59.87,7.98,113.76h-87.81l17.96-2.66c3.33-.67,5.99-3.99,5.32-7.32s-3.99-5.99-7.32-5.32l-38.58,5.99c-3.33.67-5.99,3.99-5.32,7.32,0,.67.67,1.33.67,2h-12.64c-12.64-45.24-20.62-79.83-22.62-90.47ZM1157.8,787.3c-3.99,29.94-29.27,52.55-59.87,52.55h-294.04c-29.94,0-55.88-22.62-59.87-52.55l-25.28-200.24h464.34l-25.28,200.24ZM1197.05,573.76h-492.28v-26.61h492.28v26.61Z"/>
      <path class="cls-3" d="M904.34,427.4h39.91c3.99,0,6.65-2.66,6.65-6.65s-2.66-6.65-6.65-6.65h-39.91c-3.99,0-6.65,2.66-6.65,6.65s2.66,6.65,6.65,6.65Z"/>
      <path class="cls-3" d="M964.21,480.62h39.91c3.99,0,6.65-2.66,6.65-6.65s-2.66-6.65-6.65-6.65h-39.91c-3.99,0-6.65,2.66-6.65,6.65s2.66,6.65,6.65,6.65Z"/>
      <path class="cls-3" d="M944.26,507.23h-39.91c-3.99,0-6.65,2.66-6.65,6.65s2.66,6.65,6.65,6.65h39.91c3.99,0,6.65-2.66,6.65-6.65s-2.66-6.65-6.65-6.65Z"/>
      <path class="cls-3" d="M791.25,431.4c-.67-3.33-3.99-5.99-7.32-5.32l-38.58,5.99c-3.33.67-5.99,3.99-5.32,7.32.67,3.33,3.33,5.32,6.65,5.32h1.33l38.58-5.99c3.33,0,5.32-3.33,4.66-7.32Z"/>
      <path class="cls-3" d="M812.54,488.61h1.33l38.58-5.99c3.33-.67,5.99-3.99,5.32-7.32-.67-3.33-3.99-5.99-7.32-5.32l-38.58,5.99c-3.33.67-5.99,3.99-5.32,7.32,0,2.66,2.66,5.32,5.99,5.32Z"/>
      <path class="cls-3" d="M1115.89,439.38l38.58,5.99h1.33c3.33,0,5.99-2,6.65-5.32s-2-7.32-5.32-7.32l-38.58-5.99c-3.33-.67-7.32,2-7.32,5.32-1.33,3.33.67,6.65,4.66,7.32Z"/>
      <path class="cls-3" d="M1049.37,481.95l38.58,5.99h1.33c3.33,0,5.99-2,6.65-5.32s-2-7.32-5.32-7.32l-38.58-5.99c-3.33-.67-7.32,2-7.32,5.32-1.33,3.33.67,6.65,4.66,7.32Z"/>
    </g>
  </g>
</svg>