<?xml version="1.0" encoding="UTF-8"?>
<svg id="Camada_1" data-name="Camada 1" xmlns="http://www.w3.org/2000/svg" viewBox="0 0 1920 1080">
  <defs>
    <style>
      .cls-1 {
        fill: #474747;
        stroke-width: 0px;
      }
    </style>
  </defs>
  <path class="cls-1" d="M1307.32,1064.99h-586.16c-98.8.68-190.27-52-239.28-137.79-49.24-84.01-49.24-188.07,0-272.08l294.39-503.49c76.76-131.42,245.53-175.73,376.96-98.97,40.96,23.92,75.05,58.01,98.97,98.97l293.52,503.49h0c49.24,84.01,49.24,188.07,0,272.08-48.85,85.52-139.92,138.15-238.4,137.79ZM1014.24,102.64c-66.86-.6-128.86,34.83-162.29,92.74l-293.52,503.92c-33.45,56.83-33.45,127.33,0,184.16,33.1,58.61,95.41,94.63,162.73,94.05h586.16c67.47.74,129.99-35.3,163.16-94.05,33.45-56.83,33.45-127.33,0-184.16l-293.95-503.92c-33.43-57.9-95.43-93.33-162.29-92.74Z"/>
  <path class="cls-1" d="M1101.73,321.36c-38.61-48.32-109.07-56.19-157.39-17.58-6.5,5.19-12.39,11.09-17.58,17.58-21.42,26.98-28.88,62.48-20.12,95.8l63.87,264.65c5.87,23.43,29.63,37.67,53.07,31.8,15.65-3.92,27.87-16.14,31.8-31.8l66.05-265.08c8.73-33.12,1.45-68.41-19.68-95.36ZM1037.86,395.72l-23.62,95.36-23.62-95.36c-2.14-7.29-.5-15.17,4.37-21,7.97-10.63,23.05-12.78,33.68-4.81,1.82,1.37,3.44,2.99,4.81,4.81,4.87,5.83,6.51,13.71,4.37,21Z"/>
  <circle class="cls-1" cx="1014.24" cy="824.41" r="65.61"/>
</svg>