<?xml version="1.0" encoding="UTF-8"?>
<svg id="Camada_1" data-name="Camada 1" xmlns="http://www.w3.org/2000/svg" viewBox="0 0 1296 1080">
  <defs>
    <style>
      .cls-1 {
        fill: #fff;
        stroke-width: 0px;
      }
    </style>
  </defs>
  <path class="cls-1" d="M622.09,1059c-101.43-53.39-198.5-104.47-295.55-155.56-40.17-21.15-80.82-41.46-120.09-64.15-9.16-5.29-19.31-18.68-19.38-28.41-1.18-157.44-.82-314.89-.69-472.34,0-2.41,1.54-4.82,3.43-10.36,29.63,15.4,58.36,30.18,86.95,45.21,108.47,57.02,216.8,114.3,325.44,170.99,14.05,7.33,22.3,14.89,22.21,32.83-.74,153.8-.41,307.61-.48,461.42,0,5.18-.9,10.36-1.84,20.38Z"/>
  <path class="cls-1" d="M716.81,1057.84c-.73-12.67-1.58-20.55-1.58-28.43-.08-150.21.04-300.42-.22-450.63-.02-14.29.97-25.02,16.48-33.07,133.75-69.45,266.96-139.92,400.37-210.01,4.61-2.42,9.62-4.07,16.53-6.96.43,7.36.98,12.49.98,17.61.05,153.85.3,307.7-.53,461.55-.05,9.76-5.94,24.38-13.55,28.47-137.57,73.79-275.83,146.3-418.49,221.47Z"/>
  <path class="cls-1" d="M1097.76,244.31c-94.83,49.91-184.66,97.16-274.46,144.46-47.38,24.95-94.46,50.49-142.31,74.51-8.41,4.22-22.1,6.46-29.67,2.53-138.52-71.86-276.48-144.8-414.54-217.56-1.5-.79-2.6-2.34-5.88-5.39,76.2-40.11,151.4-79.69,226.59-119.3,61.82-32.57,123.38-65.63,185.66-97.29,9.17-4.66,24.09-7.41,32.29-3.18,139.31,72.03,277.97,145.3,422.32,221.21Z"/>
</svg>