<?xml version="1.0" encoding="UTF-8"?>
<svg id="Camada_1" data-name="Camada 1" xmlns="http://www.w3.org/2000/svg" viewBox="0 0 1920 1080">
  <defs>
    <style>
      .cls-1 {
        fill: #2a3942;
        stroke-width: 0px;
      }
    </style>
  </defs>
  <path class="cls-1" d="M996.5,36.06c-29.42-29.41-77.1-29.41-106.52,0l-500.71,500.64c-14.73,14.73-14.73,38.61,0,53.33,14.73,14.73,38.61,14.73,53.33,0h0L943.24,89.31l500.64,500.71c14.73,14.73,38.61,14.73,53.33,0,14.73-14.73,14.73-38.61,0-53.33l-177.33-177.25V111.38c0-20.8-16.86-37.66-37.66-37.66h-75.33c-20.8,0-37.66,16.86-37.66,37.66v97.4l-172.73-172.73Z"/>
  <path class="cls-1" d="M943.24,171.12l451.98,451.98v316.91c0,62.4-50.59,112.99-112.99,112.99h-677.96c-62.4,0-112.99-50.59-112.99-112.99v-316.91l451.98-451.98Z"/>
</svg>