<?xml version="1.0" encoding="UTF-8"?>
<svg id="Camada_1" data-name="Camada 1" xmlns="http://www.w3.org/2000/svg" viewBox="0 0 1920 1080">
  <defs>
    <style>
      .cls-1 {
        fill: none;
        stroke: #fff;
        stroke-miterlimit: 10;
        stroke-width: 5px;
      }

      .cls-2 {
        fill: #2a3942;
      }

      .cls-2, .cls-3 {
        stroke-width: 0px;
      }

      .cls-3 {
        fill: #fff;
      }
    </style>
  </defs>
  <circle class="cls-2" cx="942.93" cy="539.5" r="524.5"/>
  <circle class="cls-1" cx="944.88" cy="544.5" r="461.87"/>
  <g>
    <path class="cls-3" d="M960.13,689.85l141.48-85.08c11.12-7.37,14.25-22.31,7.02-33.52-6.72-11.28-21.24-15.11-32.65-8.6l-117.39,66.01-95.59-9.22c-5.44-.6-9.35-5.5-8.75-10.94.58-5.23,5.15-9.09,10.4-8.79l80.62,5.81c13.35.96,24.96-9.09,25.92-22.44.06-.8.08-1.61.05-2.41l-.13-4.68c-.37-12.12-9.61-22.12-21.67-23.44l-110.22-11.57c-1.17-.13-2.35.03-3.43.48l-81.9,32.98-53.78-11.47c-3.82-.85-7.61,1.55-8.47,5.38-.01.05-.02.09-.03.14-.83,3.87,1.64,7.68,5.52,8.51,0,0,0,0,0,0l55.92,11.87c1.4.31,2.85.18,4.18-.36l82.27-33.17,108.35,11.47c4.92.53,8.7,4.61,8.84,9.56l.13,4.68c.1,2.8-1.01,5.5-3.05,7.42-2.02,1.93-4.77,2.92-7.56,2.71l-80.61-5.8c-6.44-.54-12.83,1.6-17.66,5.9-10.11,8.77-11.2,24.07-2.43,34.18,4.08,4.71,9.82,7.66,16.02,8.25l97.89,9.45c1.46.16,2.93-.15,4.21-.89l119.35-67.12c4.91-2.65,11.03-.82,13.68,4.09.04.07.08.15.12.22,2.72,4.47,1.46,10.28-2.87,13.22l-139.98,84.19-146.59,24.85-107.04-25.57c-3.86-.88-7.7,1.53-8.58,5.39-.87,3.81,1.47,7.61,5.26,8.55l108.46,25.87c.54.13,1.1.2,1.66.2.4,0,.8-.04,1.19-.11l149.36-25.28c.88-.14,1.73-.45,2.49-.92Z"/>
    <path class="cls-3" d="M1110.14,440.9h-7.65v-45.81c0-3.96-3.21-7.17-7.17-7.17h-14.74v-34h7.57c3.96,0,7.17-3.21,7.17-7.17v-21.37h28.79v-14.34h-35.21c-.25-.06-.5-.11-.76-.14-.25.04-.49.09-.74.15l-67.94.06c-.34-.1-.69-.17-1.04-.21-.35.05-.69.12-1.02.21h-43.02c-28.58,1.8-56.9,6.56-84.5,14.19-3.84.96-6.18,4.85-5.21,8.7.96,3.84,4.85,6.18,8.7,5.21.1-.02.19-.05.29-.08,26.39-7.23,53.44-11.8,80.74-13.65h36.87v21.28c0,3.96,3.21,7.17,7.17,7.17h7.58v34h-14.81c-3.96,0-7.17,3.21-7.17,7.17v45.81h-7.65c-22.17,0-40.15,17.98-40.15,40.15h0v58.95c0,3.96,3.21,7.17,7.17,7.17s7.17-3.21,7.17-7.17v-58.98c0-14.25,11.56-25.81,25.81-25.81h65c3.96,0,7.17-3.21,7.17-7.17s-3.21-7.17-7.17-7.17h-43.03v-38.61h69.78v38.64h-5.23c-3.96,0-7.17,3.21-7.17,7.17s3.21,7.17,7.17,7.17h27.22c14.25,0,25.81,11.56,25.81,25.81h0v248.57c0,14.25-11.56,25.81-25.81,25.81h-113.76c-14.25,0-25.81-11.56-25.81-25.81h0v-24.6c0-3.96-3.21-7.17-7.17-7.17s-7.17,3.21-7.17,7.17v24.6c0,22.17,17.98,40.15,40.15,40.15h113.76c22.17,0,40.15-17.98,40.15-40.15h0v-248.6c-.02-22.16-17.99-40.12-40.15-40.12ZM1025.61,325.45l55.37-.06v14.2h-55.37v-14.14ZM1040.36,353.92h25.91v34h-25.91v-34Z"/>
    <path class="cls-3" d="M891.78,511.13c26.09-.05,47.23-21.2,47.25-47.29,0-6.7-1.43-13.33-4.21-19.42l-.07-.14-36.51-76.47c-2.07-3.57-6.64-4.8-10.21-2.73-1.13.66-2.07,1.6-2.73,2.73l-36.57,76.62c-2.79,6.1-4.24,12.72-4.25,19.42.03,26.11,21.19,47.26,47.3,47.29ZM861.74,450.45l30.04-62.89,30.04,62.81c1.93,4.23,2.93,8.81,2.94,13.46-.31,18.2-15.32,32.7-33.52,32.39-17.76-.3-32.09-14.63-32.39-32.39,0-4.61.98-9.18,2.88-13.38Z"/>
  </g>
</svg>