<?xml version="1.0" encoding="UTF-8"?>
<svg id="Camada_1" data-name="Camada 1" xmlns="http://www.w3.org/2000/svg" viewBox="0 0 1920 1080">
  <defs>
    <style>
      .cls-1 {
        fill: none;
        stroke: #fff;
        stroke-miterlimit: 10;
        stroke-width: 5px;
      }

      .cls-2 {
        fill: #2a3942;
      }

      .cls-2, .cls-3 {
        stroke-width: 0px;
      }

      .cls-3 {
        fill: #fff;
      }
    </style>
  </defs>
  <circle class="cls-2" cx="989.24" cy="547.5" r="517.5"/>
  <circle class="cls-1" cx="991.17" cy="552.43" r="455.71"/>
  <path class="cls-3" d="M1091.34,372.27v27.72h97.01c7.65,0,13.86,6.2,13.86,13.86s-6.2,13.86-13.86,13.86h-14.91l-23.64,295.46c-2.31,28.81-26.37,51.01-55.27,51h-172.68c-28.9,0-52.96-22.19-55.27-51l-23.64-295.46h-14.91c-7.65,0-13.86-6.2-13.86-13.86s6.2-13.86,13.86-13.86h97.01v-27.72c0-22.96,18.61-41.58,41.58-41.58h83.15c22.96,0,41.58,18.61,41.58,41.58M952.76,372.27v27.72h110.87v-27.72c0-7.65-6.2-13.86-13.86-13.86h-83.15c-7.65,0-13.86,6.2-13.86,13.86M911.18,470.09l13.86,235.6c.31,7.65,6.76,13.6,14.4,13.29,7.65-.31,13.6-6.76,13.29-14.4,0-.18-.02-.37-.03-.55l-13.86-235.6c-.31-7.65-6.76-13.6-14.4-13.29-7.65.31-13.6,6.76-13.29,14.4,0,.18.02.37.03.55M1092.18,455.45c-7.64-.44-14.19,5.39-14.63,13.03l-13.86,235.6c-.25,7.65,5.75,14.06,13.4,14.31,7.38.24,13.65-5.34,14.27-12.7l13.86-235.6c.44-7.64-5.39-14.19-13.03-14.63M1008.19,455.42c-7.65,0-13.86,6.2-13.86,13.86v235.6c0,7.65,6.2,13.86,13.86,13.86s13.86-6.2,13.86-13.86v-235.6c0-7.65-6.2-13.86-13.86-13.86"/>
</svg>