<?xml version="1.0" encoding="UTF-8"?>
<svg id="Camada_1" data-name="Camada 1" xmlns="http://www.w3.org/2000/svg" viewBox="0 0 1920 1080">
  <defs>
    <style>
      .cls-1 {
        fill: #7b797c;
        stroke-width: 0px;
      }
    </style>
  </defs>
  <path class="cls-1" d="M1149.43,110.59v63.06h220.72c17.41,0,31.53,14.12,31.53,31.53s-14.12,31.53-31.53,31.53h-33.93l-53.79,672.25c-5.26,65.54-59.99,116.05-125.75,116.04h-392.88c-65.75.01-120.49-50.49-125.75-116.04l-53.79-672.25h-33.93c-17.41,0-31.53-14.12-31.53-31.53s14.12-31.53,31.53-31.53h220.72v-63.06c0-52.24,42.35-94.59,94.59-94.59h189.19c52.24,0,94.59,42.35,94.59,94.59M834.11,110.59v63.06h252.25v-63.06c0-17.41-14.12-31.53-31.53-31.53h-189.19c-17.41,0-31.53,14.12-31.53,31.53M739.52,333.14l31.53,536.03c.7,17.4,15.37,30.94,32.77,30.24,17.4-.7,30.94-15.37,30.24-32.77-.02-.42-.04-.84-.08-1.25l-31.53-536.03c-.7-17.4-15.37-30.94-32.77-30.24-17.4.7-30.94,15.37-30.24,32.77.02.42.04.84.08,1.25M1151.32,299.84c-17.38-1-32.28,12.26-33.3,29.64l-31.53,536.03c-.57,17.4,13.07,31.98,30.48,32.55,16.79.55,31.06-12.15,32.46-28.89l31.53-536.03c1-17.38-12.26-32.28-29.64-33.3M960.24,299.78c-17.41,0-31.53,14.12-31.53,31.53v536.03c0,17.41,14.12,31.53,31.53,31.53s31.53-14.12,31.53-31.53V331.31c0-17.41-14.12-31.53-31.53-31.53"/>
</svg>