<?xml version="1.0" encoding="UTF-8"?>
<svg id="Camada_1" data-name="Camada 1" xmlns="http://www.w3.org/2000/svg" viewBox="0 0 1920 1080">
  <defs>
    <style>
      .cls-1 {
        fill: #293941;
        stroke-width: 0px;
      }
    </style>
  </defs>
  <path class="cls-1" d="M1174,688.4c134.49-183.52,94.74-441.32-88.78-575.81C901.7-21.9,643.9,17.85,509.41,201.37c-134.49,183.52-94.74,441.32,88.78,575.81,145.05,106.3,342.29,106.23,487.27-.17h-.06c1.86,2.54,3.93,4.96,6.21,7.29l244.01,244.01c24.75,24.77,64.89,24.78,89.65.03,24.77-24.75,24.78-64.89.03-89.65l-244.01-244.01c-2.26-2.29-4.7-4.41-7.29-6.34v.06ZM1190.35,444.76c0,192.52-156.07,348.59-348.59,348.59s-348.59-156.07-348.59-348.59S649.24,96.17,841.76,96.17s348.59,156.07,348.59,348.59"/>
</svg>