<?xml version="1.0" encoding="UTF-8"?>
<svg id="Camada_1" data-name="Camada 1" xmlns="http://www.w3.org/2000/svg" viewBox="0 0 1920 1080">
  <defs>
    <style>
      .cls-1 {
        fill: #7b797c;
        opacity: .6;
        stroke-width: 0px;
      }
    </style>
  </defs>
  <path class="cls-1" d="M1229,677.82c136.88-186.78,96.42-449.15-90.36-586.03C951.87-45.08,689.49-4.63,552.62,182.15c-136.88,186.78-96.42,449.15,90.36,586.03,147.63,108.18,348.37,108.11,495.92-.18h-.06c1.89,2.58,4,5.05,6.32,7.42l248.34,248.34c25.19,25.2,66.04,25.22,91.24.03,25.2-25.19,25.22-66.04.03-91.24l-248.34-248.34c-2.31-2.34-4.78-4.49-7.42-6.45v.06ZM1245.64,429.87c0,195.94-158.84,354.78-354.78,354.78s-354.78-158.84-354.78-354.78S694.93,75.09,890.87,75.09s354.78,158.84,354.78,354.78"/>
</svg>