<?xml version="1.0" encoding="UTF-8"?>
<svg id="Camada_1" data-name="Camada 1" xmlns="http://www.w3.org/2000/svg" viewBox="0 0 1920 1080">
  <defs>
    <style>
      .cls-1 {
        fill: none;
        stroke: #fff;
        stroke-miterlimit: 10;
        stroke-width: 5px;
      }

      .cls-2 {
        fill: #2a3942;
      }

      .cls-2, .cls-3 {
        stroke-width: 0px;
      }

      .cls-3 {
        fill: #fff;
      }
    </style>
  </defs>
  <circle class="cls-2" cx="943.75" cy="540.5" r="532.5"/>
  <circle class="cls-1" cx="945.74" cy="545.58" r="468.92"/>
  <g id="_7" data-name="7">
    <path class="cls-3" d="M950.15,697.99c-190.44,0-299.8-43.15-299.8-118.28,0-50.59,48.35-107.87,123.49-147.3,21.57-11.16,45.38-20.83,69.93-27.53,22.32-6.7,45.38-11.16,68.44-13.39,23.81-2.23,46.87-2.23,69.93,0,24.55,2.23,49.1,6.7,72.9,13.39,24.55,7.44,48.35,16.37,69.93,27.53,73.65,38.68,123.49,97.45,123.49,147.3,1.49,75.14-107.87,118.28-298.31,118.28ZM950.15,412.32c-11.16,0-23.06.74-34.96,1.49-21.57,2.23-43.15,5.95-64.72,12.65-23.06,6.7-45.38,15.62-65.47,26.04-65.47,34.22-111.59,86.3-111.59,127.21,0,59.51,106.38,95.97,277.48,95.97s277.48-36.45,277.48-95.97c0-40.92-46.12-92.99-111.59-127.21-20.83-10.41-42.4-19.34-66.21-26.04-22.32-6.7-46.12-10.41-69.18-12.65-11.16-1.49-20.83-1.49-31.24-1.49ZM947.92,530.61c-24.55,0-45.38-20.09-45.38-45.38v-82.58c0-5.95,4.46-10.41,10.41-11.16,23.81-2.23,46.87-2.23,69.93,0,5.95.74,10.41,5.21,10.41,11.16v83.32c0,24.55-20.83,44.64-45.38,44.64ZM924.85,413.07v72.16c0,12.65,10.41,23.06,23.06,23.06s23.06-10.41,23.06-23.06v-72.9c-15.62-.74-30.5,0-46.12.74ZM1087.03,555.16c-24.55,0-45.38-20.09-45.38-45.38v-94.48c0-3.72,1.49-6.7,4.46-8.93,2.98-2.23,6.7-2.98,9.67-1.49,24.55,7.44,48.35,16.37,69.93,27.53,3.72,2.23,5.95,5.95,5.95,9.67v67.7c0,25.29-20.09,45.38-44.64,45.38ZM1063.97,430.92v79.6c0,12.65,10.41,23.06,23.06,23.06s23.06-10.41,23.06-23.06v-61c-14.88-7.44-30.5-13.39-46.12-18.6ZM813.27,555.16c-24.55,0-45.38-20.09-45.38-45.38v-67.7c0-4.46,2.23-8.18,5.95-9.67,21.57-11.16,45.38-20.83,69.93-27.53,3.72-.74,6.7,0,9.67,1.49,2.98,2.23,4.46,5.21,4.46,8.93v94.48c.74,25.29-19.34,45.38-44.64,45.38ZM790.95,449.52v60.26c0,12.65,10.41,23.06,23.06,23.06s23.06-10.41,23.06-23.06v-78.86c-16.37,5.21-31.99,11.16-46.12,18.6ZM779.79,629.55c5.95,0,11.16-5.21,11.16-11.16s-5.21-11.16-11.16-11.16h0c-39.43.74-59.51-25.29-60.26-26.78-3.72-5.21-10.41-5.95-15.62-2.23-5.21,3.72-5.95,10.41-2.23,15.62.74,1.49,27.53,35.71,76.62,35.71,0,0,.74,0,1.49,0Z"/>
  </g>
</svg>