<?xml version="1.0" encoding="UTF-8"?>
<svg id="Camada_1" data-name="Camada 1" xmlns="http://www.w3.org/2000/svg" viewBox="0 0 1920 1080">
  <defs>
    <style>
      .cls-1 {
        fill: none;
        stroke: #fff;
        stroke-miterlimit: 10;
        stroke-width: 5px;
      }

      .cls-2 {
        fill: #2a3942;
      }

      .cls-2, .cls-3 {
        stroke-width: 0px;
      }

      .cls-3 {
        fill: #fff;
      }
    </style>
  </defs>
  <circle class="cls-2" cx="928.75" cy="538.5" r="530.5"/>
  <circle class="cls-1" cx="930.73" cy="543.56" r="467.16"/>
  <path class="cls-3" d="M1055.66,611.98c67.8-92.52,47.76-222.49-44.76-290.29-92.52-67.8-222.49-47.76-290.29,44.76-67.8,92.52-47.76,222.49,44.76,290.29,73.13,53.59,172.56,53.55,245.65-.09h-.03c.94,1.28,1.98,2.5,3.13,3.67l123.02,123.02c12.48,12.49,32.71,12.49,45.2.02,12.49-12.48,12.49-32.71.02-45.2l-123.02-123.02c-1.14-1.16-2.37-2.23-3.67-3.2v.03ZM1063.9,489.16c0,97.06-78.68,175.74-175.74,175.74s-175.74-78.68-175.74-175.74,78.68-175.74,175.74-175.74,175.74,78.68,175.74,175.74"/>
</svg>