<?xml version="1.0" encoding="UTF-8"?>
<svg id="Camada_1" data-name="Camada 1" xmlns="http://www.w3.org/2000/svg" viewBox="0 0 1920 1080">
  <defs>
    <style>
      .cls-1 {
        fill: #30414b;
      }

      .cls-1, .cls-2 {
        stroke-width: 0px;
      }

      .cls-2 {
        fill: #fff;
      }
    </style>
  </defs>
  <circle class="cls-1" cx="945.82" cy="540" r="531"/>
  <path class="cls-2" d="M770.67,347.59c-7.59,0-13.74,6.15-13.74,13.74v82.46c0,7.59-6.15,13.74-13.74,13.74s-13.74-6.15-13.74-13.74v-82.46c0-22.77,18.46-41.23,41.23-41.23h82.46c7.59,0,13.74,6.15,13.74,13.74s-6.15,13.74-13.74,13.74h-82.46ZM1031.8,333.85c0-7.59,6.15-13.74,13.74-13.74h82.46c22.77,0,41.23,18.46,41.23,41.23v82.46c0,7.59-6.15,13.74-13.74,13.74s-13.74-6.15-13.74-13.74v-82.46c0-7.59-6.15-13.74-13.74-13.74h-82.46c-7.59,0-13.74-6.15-13.74-13.74M743.18,622.46c7.59,0,13.74,6.15,13.74,13.74v82.46c0,7.59,6.15,13.74,13.74,13.74h82.46c7.59,0,13.74,6.15,13.74,13.74s-6.15,13.74-13.74,13.74h-82.46c-22.77,0-41.23-18.46-41.23-41.23h0v-82.46c0-7.59,6.15-13.74,13.74-13.74M1155.49,622.46c7.59,0,13.74,6.15,13.74,13.74v82.46c0,22.77-18.46,41.23-41.23,41.23h-82.46c-7.59,0-13.74-6.15-13.74-13.74s6.15-13.74,13.74-13.74h82.46c7.59,0,13.74-6.15,13.74-13.74v-82.46c0-7.59,6.15-13.74,13.74-13.74M811.9,443.8c0-7.59,6.15-13.74,13.74-13.74s13.74,6.15,13.74,13.74v192.41c0,7.59-6.15,13.74-13.74,13.74s-13.74-6.15-13.74-13.74v-192.41ZM866.88,443.8c0-7.59,6.15-13.74,13.74-13.74s13.74,6.15,13.74,13.74v192.41c0,7.59-6.15,13.74-13.74,13.74s-13.74-6.15-13.74-13.74v-192.41ZM921.85,443.8c0-7.59,6.15-13.74,13.74-13.74s13.74,6.15,13.74,13.74v192.41c0,7.59-6.15,13.74-13.74,13.74s-13.74-6.15-13.74-13.74v-192.41ZM976.82,443.8c0-7.59,6.15-13.74,13.74-13.74h27.49c7.59,0,13.74,6.15,13.74,13.74v192.41c0,7.59-6.15,13.74-13.74,13.74h-27.49c-7.59,0-13.74-6.15-13.74-13.74v-192.41ZM1059.29,443.8c0-7.59,6.15-13.74,13.74-13.74s13.74,6.15,13.74,13.74v192.41c0,7.59-6.15,13.74-13.74,13.74s-13.74-6.15-13.74-13.74v-192.41Z"/>
</svg>