<?xml version="1.0" encoding="UTF-8"?>
<svg id="Camada_1" data-name="Camada 1" xmlns="http://www.w3.org/2000/svg" viewBox="0 0 1920 1080">
  <defs>
    <style>
      .cls-1 {
        fill: #2a3942;
        fill-rule: evenodd;
        stroke-width: 0px;
      }
    </style>
  </defs>
  <path class="cls-1" d="M1483.57,13c24.14,0,43.71,19.57,43.71,43.71v419.58c0,120.69-97.84,218.53-218.53,218.53H452.72l292.57,292.48c17.09,17.09,17.09,44.8,0,61.89-17.09,17.09-44.8,17.09-61.89,0l-367.13-367.13c-17.09-17.05-17.12-44.72-.08-61.81.03-.03.05-.05.08-.08l349.65-349.65c17.09-17.09,44.8-17.09,61.89,0,17.09,17.09,17.09,44.8,0,61.89l-275.09,275h856.03c72.41,0,131.12-58.7,131.12-131.12V56.71c0-24.14,19.57-43.71,43.71-43.71"/>
</svg>